<svg width="28" height="28" viewBox="0 0 28 28" fill="none" xmlns="http://www.w3.org/2000/svg">
<path d="M19.0607 16.9393C18.4749 16.3536 17.5251 16.3536 16.9393 16.9393C16.3536 17.5251 16.3536 18.4749 16.9393 19.0607L19.0607 16.9393ZM24.9393 27.0607C25.5251 27.6464 26.4749 27.6464 27.0607 27.0607C27.6464 26.4749 27.6464 25.5251 27.0607 24.9393L24.9393 27.0607ZM11.3333 19.1667C7.0071 19.1667 3.5 15.6596 3.5 11.3333H0.5C0.5 17.3164 5.35025 22.1667 11.3333 22.1667V19.1667ZM3.5 11.3333C3.5 7.0071 7.0071 3.5 11.3333 3.5V0.5C5.35025 0.5 0.5 5.35025 0.5 11.3333H3.5ZM11.3333 3.5C15.6596 3.5 19.1667 7.0071 19.1667 11.3333H22.1667C22.1667 5.35025 17.3164 0.5 11.3333 0.5V3.5ZM19.1667 11.3333C19.1667 15.6596 15.6596 19.1667 11.3333 19.1667V22.1667C17.3164 22.1667 22.1667 17.3164 22.1667 11.3333H19.1667ZM16.9393 19.0607L24.9393 27.0607L27.0607 24.9393L19.0607 16.9393L16.9393 19.0607Z" fill="#A3A3A3"/>
</svg>
