<svg width="20" height="20" viewBox="0 0 20 20" fill="none" xmlns="http://www.w3.org/2000/svg">
<path d="M1.17041 0C0.618125 0 0.17041 0.447715 0.17041 1C0.17041 1.55228 0.618125 2 1.17041 2V0ZM3.44189 2.26477L4.4197 2.05524L4.4197 2.05524L3.44189 2.26477ZM5.89986 13.7353L4.92205 13.9448L5.89986 13.7353ZM6.1639 14.5802L5.34945 15.1604L5.34945 15.1604L6.1639 14.5802ZM6.58252 14.918L6.97921 14L6.97921 14L6.58252 14.918ZM2.75821 1.08205L3.1549 0.164097L3.1549 0.164097L2.75821 1.08205ZM3.17627 1.4198L3.99073 0.839575L3.99073 0.839575L3.17627 1.4198ZM4.17041 3C3.61813 3 3.17041 3.44772 3.17041 4C3.17041 4.55228 3.61813 5 4.17041 5V3ZM18.5814 6.04346L19.5422 6.32062L19.5422 6.32062L18.5814 6.04346ZM17.1968 10.8435L16.236 10.5663L16.236 10.5663L17.1968 10.8435ZM5.90088 11C5.34859 11 4.90088 11.4477 4.90088 12C4.90088 12.5523 5.34859 13 5.90088 13V11ZM16.896 11.6193L17.6812 12.2386L17.6812 12.2386L16.896 11.6193ZM16.4875 11.926L16.8649 12.8521L16.8649 12.8521L16.4875 11.926ZM18.3684 4.15036L17.841 5L17.841 5L18.3684 4.15036ZM18.8033 4.72876L19.7658 4.45755L18.8033 4.72876ZM15.1704 18C14.6181 18 14.1704 17.5523 14.1704 17H12.1704C12.1704 18.6569 13.5136 20 15.1704 20V18ZM14.1704 17C14.1704 16.4477 14.6181 16 15.1704 16V14C13.5136 14 12.1704 15.3431 12.1704 17H14.1704ZM15.1704 16C15.7227 16 16.1704 16.4477 16.1704 17H18.1704C18.1704 15.3431 16.8273 14 15.1704 14V16ZM16.1704 17C16.1704 17.5523 15.7227 18 15.1704 18V20C16.8273 20 18.1704 18.6569 18.1704 17H16.1704ZM6.17041 18C5.61813 18 5.17041 17.5523 5.17041 17H3.17041C3.17041 18.6569 4.51356 20 6.17041 20V18ZM5.17041 17C5.17041 16.4477 5.61813 16 6.17041 16V14C4.51356 14 3.17041 15.3431 3.17041 17H5.17041ZM6.17041 16C6.72269 16 7.17041 16.4477 7.17041 17H9.17041C9.17041 15.3431 7.82726 14 6.17041 14V16ZM7.17041 17C7.17041 17.5523 6.72269 18 6.17041 18V20C7.82726 20 9.17041 18.6569 9.17041 17H7.17041ZM1.17041 2H1.87694V0H1.17041V2ZM2.46409 2.4743L4.92205 13.9448L6.87766 13.5257L4.4197 2.05524L2.46409 2.4743ZM7.46436 16H15.1704V14H7.46436V16ZM4.92205 13.9448C4.9671 14.155 5.01151 14.3663 5.06293 14.5431C5.11795 14.7321 5.19879 14.9489 5.34945 15.1604L6.97836 14C7.00901 14.043 7.00615 14.0628 6.9833 13.9843C6.95687 13.8935 6.92926 13.7666 6.87766 13.5257L4.92205 13.9448ZM7.46436 14C7.21911 14 7.08901 13.9994 6.99518 13.9925C6.91391 13.9865 6.93176 13.9795 6.97921 14L6.18583 15.8359C6.42314 15.9385 6.65128 15.9725 6.84815 15.987C7.03246 16.0006 7.24835 16 7.46436 16V14ZM5.34945 15.1604C5.56226 15.4592 5.85271 15.692 6.18583 15.8359L6.97921 14L6.97836 14L5.34945 15.1604ZM1.87694 2C2.1222 2 2.2521 2.00063 2.34572 2.00754C2.42662 2.01351 2.40877 2.02042 2.36151 2L3.1549 0.164097C2.91779 0.0616288 2.68993 0.0275102 2.49297 0.0129699C2.30874 -0.000630528 2.09294 0 1.87694 0V2ZM4.4197 2.05524C4.37428 1.8433 4.32952 1.63215 4.27727 1.45436C4.2215 1.26461 4.1402 1.04939 3.99073 0.839575L2.36181 2.00002C2.33234 1.95866 2.33553 1.94042 2.35842 2.01829C2.38482 2.10812 2.41286 2.23523 2.46409 2.4743L4.4197 2.05524ZM2.36151 2L2.36181 2.00002L3.99073 0.839575C3.77866 0.541904 3.48921 0.308569 3.1549 0.164097L2.36151 2ZM4.17041 5H17.0436V3H4.17041V5ZM17.6206 5.7663L16.236 10.5663L18.1576 11.1206L19.5422 6.32062L17.6206 5.7663ZM15.6587 11H5.90088V13H15.6587V11ZM16.236 10.5663C16.1723 10.787 16.1383 10.9028 16.1082 10.9849C16.0824 11.0551 16.0812 11.0377 16.1108 11L17.6812 12.2386C17.9534 11.8935 18.0627 11.4495 18.1576 11.1206L16.236 10.5663ZM15.6587 13C16.0011 13 16.4578 13.018 16.8649 12.8521L16.1101 11C16.1544 10.9819 16.1708 10.988 16.0962 10.9932C16.0091 10.9994 15.8884 11 15.6587 11V13ZM16.1108 11L16.1101 11L16.8649 12.8521C17.1833 12.7223 17.4657 12.5118 17.6812 12.2386L16.1108 11ZM17.0436 5C17.4231 5 17.6411 5.00094 17.797 5.01484C17.9463 5.02816 17.9147 5.04572 17.841 5L18.8957 3.30072C18.5798 3.10464 18.2467 3.04702 17.9747 3.02275C17.7091 2.99906 17.3859 3 17.0436 3V5ZM19.5422 6.32062C19.6373 5.99117 19.7275 5.68087 19.7782 5.41872C19.8301 5.15021 19.8665 4.81467 19.7658 4.45755L17.8408 4.99997C17.8175 4.91727 17.8429 4.89234 17.8145 5.0392C17.7849 5.19241 17.7256 5.40225 17.6206 5.7663L19.5422 6.32062ZM17.841 5L17.8408 4.99997L19.7658 4.45755C19.6305 3.9772 19.3205 3.56436 18.8957 3.30072L17.841 5Z" fill="black"/>
</svg>
